<?xml version="1.0" ?><!DOCTYPE svg  PUBLIC '-//W3C//DTD SVG 1.1//EN'  'http://www.w3.org/Graphics/SVG/1.1/DTD/svg11.dtd'><svg height="512px" style="enable-background:new 0 0 512 512;" version="1.1" viewBox="0 0 512 512" width="512px" xml:space="preserve" xmlns="http://www.w3.org/2000/svg" xmlns:xlink="http://www.w3.org/1999/xlink"><g id="Ecology_x2C__recycle_x2C__recycling_x2C_waste"><g><path d="M129.666,162.493l81.486,38.845    c7.965-13.277,27.223-49.403,37.061-59.269l18.518,35.215l-24.123,12.951l105.59,25.903l29.688-99.973l-20.44,11.103    c-14.165-35.52-35.801-53.23-74.847-53.71h-70.901c-31.289,0-29.283,4.58-44.11,28.292L129.666,162.493z" style="fill-rule:evenodd;clip-rule:evenodd;fill:#7CBC42;"/><path d="M348.197,293.98c3.704,5.554,7.398,11.096,9.247,16.66    h-40.693v-16.66l1.796-9.307l-74.029,79.682l74.029,74.086l1.898-24.113h11.106c36.697,0,53.555-9.166,72.226-42.573    c0,0,23.329-46.521,33.242-63.8l3.769-6.566c2.116-3.496,3.155-7.248,3.342-11.085v-2.528c-0.266-5.521-2.195-11.064-5.187-16.053    l-44.482-75.939l-74.016,53.737L348.197,293.98z" style="fill-rule:evenodd;clip-rule:evenodd;fill:#7CBC42;"/><path d="M168.534,199.494l-99.98,24.123l18.495,14.801    c-24.08,32.164-24.977,57.575-5.541,92.563c0,0,24.156,40.635,36.049,59.268l4.714,7.41c5.484,11.105,14.806,14.805,27.756,14.805    h83.333v-88.868h-75.928l20.355-35.159c5.604,1.846,13.01,7.398,14.79,9.254l7.398,5.553L168.534,199.494z" style="fill-rule:evenodd;clip-rule:evenodd;fill:#72AC42;"/></g></g><g id="Layer_1"/></svg>