<?xml version="1.0" ?><svg viewBox="0 0 512 512" xmlns="http://www.w3.org/2000/svg"><defs><style>.cls-1{fill:#f9b7b7;}.cls-2{fill:#d27676;}.cls-3{fill:#ee9b9b;}.cls-4{fill:#0071af;}.cls-5{fill:#00b378;}.cls-6{fill:#575757;}.cls-7{fill:#6e6e6e;}.cls-8{fill:#ea8383;}.cls-9{fill:#00a16c;}.cls-10{fill:#dfdfdf;}.cls-11{fill:#bebebe;}.cls-12{fill:#7db6d6;}.cls-13{fill:#096;}.cls-14{fill:#d49c9c;}.cls-15{fill:#4a4a4a;}.cls-16{fill:#00895c;}.cls-17{fill:#005686;}.cls-18{fill:#00659d;}.cls-19{fill:#006095;}.cls-20{fill:#010202;opacity:0.15;}.cls-21{fill:#c77070;}.cls-22{fill:#cb8484;}</style></defs><title/><g data-name="/ FILLED_OUTLINE" id="_FILLED_OUTLINE"><rect class="cls-1" height="80" width="64" x="368" y="376"/><path class="cls-2" d="M419.17725,24h-38.3545A36.82272,36.82272,0,0,0,344,60.82275h0a47.99976,47.99976,0,0,0,23.3042,41.15967L384,112h32l16.6958-10.01758A47.99976,47.99976,0,0,0,456,60.82275h0A36.82272,36.82272,0,0,0,419.17725,24Z"/><path class="cls-1" d="M437.18652,142.05322,416,136V120.94434A37.89041,37.89041,0,0,1,420,104a37.89041,37.89041,0,0,0,4-16.94434V66.88721A16,16,0,0,0,405.36963,51.105l-2.63037.43848A32,32,0,0,0,376,83.10791v3.94775A37.89041,37.89041,0,0,0,380,104a37.89041,37.89041,0,0,1,4,16.94434V136l-21.18652,6.05322A48.00036,48.00036,0,0,0,328,188.20654V272a16,16,0,0,0,32,0h80a16,16,0,0,0,32,0V188.20654A48.00036,48.00036,0,0,0,437.18652,142.05322Z"/><path class="cls-3" d="M304.791,145.3689,272,136V123.31372A27.31358,27.31358,0,0,1,280,104a27.314,27.314,0,0,0,8-19.31372V56a32,32,0,0,0-64,0V84.68628A27.314,27.314,0,0,0,232,104a27.31358,27.31358,0,0,1,8,19.31372V136l-32.791,9.3689A31.99994,31.99994,0,0,0,184,176.1377V272a16,16,0,0,0,32,0h80a16,16,0,0,0,32,0V176.1377A31.99994,31.99994,0,0,0,304.791,145.3689Z"/><path class="cls-4" d="M328,256V176.1377a31.99994,31.99994,0,0,0-23.209-30.7688L272,136l-2.68726,4.03076a15.99985,15.99985,0,0,1-26.62548,0L240,136l-32.791,9.3689A31.99994,31.99994,0,0,0,184,176.1377V256h32v16h80V256Z"/><rect class="cls-1" height="72" width="32" x="80" y="384"/><rect class="cls-1" height="72" width="32" x="112" y="384"/><path class="cls-1" d="M160.791,145.3689,128,136V123.31372A27.31358,27.31358,0,0,1,136,104a27.314,27.314,0,0,0,8-19.31372V56a32,32,0,0,0-64,0V84.68628A27.314,27.314,0,0,0,88,104a27.31358,27.31358,0,0,1,8,19.31372V136l-32.791,9.3689A31.99994,31.99994,0,0,0,40,176.1377V272a16,16,0,0,0,32,0h80a16,16,0,0,0,32,0V176.1377A31.99994,31.99994,0,0,0,160.791,145.3689Z"/><path class="cls-5" d="M160.791,145.3689,128,136a35.777,35.777,0,0,1-32,0l-32.791,9.3689A31.99994,31.99994,0,0,0,40,176.1377V224H72v48h80V224h32V176.1377A31.99994,31.99994,0,0,0,160.791,145.3689Z"/><path class="cls-6" d="M144,384H80a16,16,0,0,1-16-16V312l8-40h80l8,40v56A16,16,0,0,1,144,384Z"/><rect class="cls-7" height="56" width="16" x="104" y="328"/><path class="cls-5" d="M96,488H64a16,16,0,0,1-16-16v0a16,16,0,0,1,16-16h48v16A16,16,0,0,1,96,488Z"/><path class="cls-5" d="M128,488h32a16,16,0,0,0,16-16v0a16,16,0,0,0-16-16H112v16A16,16,0,0,0,128,488Z"/><rect class="cls-6" height="184" width="80" x="216" y="272"/><rect class="cls-7" height="128" width="16" x="248" y="328"/><path class="cls-4" d="M240,488H208a16,16,0,0,1-16-16v0a16,16,0,0,1,16-16h48v16A16,16,0,0,1,240,488Z"/><path class="cls-4" d="M272,488h32a16,16,0,0,0,16-16v0a16,16,0,0,0-16-16H256v16A16,16,0,0,0,272,488Z"/><path class="cls-6" d="M453.16406,357.56714,440,272H360l-13.16406,85.56714A15.99991,15.99991,0,0,0,362.6499,376h74.7002A15.99991,15.99991,0,0,0,453.16406,357.56714Z"/><path class="cls-8" d="M384,488H352a16,16,0,0,1-16-16v0a16,16,0,0,1,16-16h48v16A16,16,0,0,1,384,488Z"/><path class="cls-8" d="M416,488h32a16,16,0,0,0,16-16v0a16,16,0,0,0-16-16H400v16A16,16,0,0,0,416,488Z"/><rect class="cls-3" height="80" width="16" x="392" y="376"/><rect class="cls-9" height="32" width="16" x="64" y="192"/><rect class="cls-3" height="40" width="16" x="104" y="384"/><rect class="cls-10" height="32" width="32" x="80" y="424"/><rect class="cls-10" height="32" width="32" x="112" y="424"/><rect class="cls-11" height="32" width="16" x="104" y="424"/><path class="cls-12" d="M264,144.99854a16.08209,16.08209,0,0,1-16,0V224h16Z"/><path class="cls-13" d="M72,268.426V272h80V218.50146A143.99056,143.99056,0,0,1,72,268.426Z"/><rect class="cls-9" height="32" width="16" x="144" y="192"/><path class="cls-13" d="M181.3764,163.44507A143.34361,143.34361,0,0,1,153.97974,224H184V176.1377A31.932,31.932,0,0,0,181.3764,163.44507Z"/><path class="cls-14" d="M40.00006,224A32,32,0,0,1,72,256V224Z"/><path class="cls-14" d="M152.00006,224v32A32,32,0,0,1,184,224Z"/><path class="cls-15" d="M152,272H72l-8,40v56a96.00475,96.00475,0,0,1,88.06567-95.67139Z"/><path class="cls-14" d="M80,384v24a23.99994,23.99994,0,0,1,24-24Z"/><path class="cls-14" d="M120,384v24a23.99994,23.99994,0,0,1,24-24Z"/><path class="cls-16" d="M174.58282,465.44019A32.0129,32.0129,0,0,1,144.00006,488H160a15.98057,15.98057,0,0,0,14.58282-22.55981Z"/><path class="cls-16" d="M80,488H95.99994a16.00008,16.00008,0,0,0,16-16V456A32,32,0,0,1,80,488Z"/><path class="cls-17" d="M318.58282,465.44019A32.0129,32.0129,0,0,1,288.00006,488H304a15.98057,15.98057,0,0,0,14.58282-22.55981Z"/><path class="cls-17" d="M224,488h15.99994a16.00008,16.00008,0,0,0,16-16V456A32,32,0,0,1,224,488Z"/><path class="cls-15" d="M216.00006,272v80A79.99992,79.99992,0,0,1,296,272Z"/><rect class="cls-18" height="64" width="16" x="208" y="192"/><path class="cls-19" d="M325.27173,163.22705A135.49253,135.49253,0,0,1,296,223.605V256h32V176.1377A31.9167,31.9167,0,0,0,325.27173,163.22705Z"/><path class="cls-19" d="M296,256V223.605a135.84228,135.84228,0,0,1-80,46.2832V272h80Z"/><rect class="cls-18" height="64" width="16" x="288" y="192"/><path class="cls-20" d="M328,256H296v16a15.91813,15.91813,0,0,0,1.41724,6.55957A32.01263,32.01263,0,0,1,328,256Z"/><path class="cls-20" d="M184,256h32v16a15.91813,15.91813,0,0,1-1.41724,6.55957A32.01263,32.01263,0,0,0,184,256Z"/><path class="cls-15" d="M440.04614,272.30029,440,272H360l-11.16772,72.59106A104.07309,104.07309,0,0,1,440.04614,272.30029Z"/><path class="cls-14" d="M368,376v64a64,64,0,0,1,64-64Z"/><path class="cls-21" d="M462.58282,465.44019A32.0129,32.0129,0,0,1,432.00006,488H448a15.98057,15.98057,0,0,0,14.58282-22.55981Z"/><path class="cls-21" d="M368,488h15.99994a16.00008,16.00008,0,0,0,16-16V456A32,32,0,0,1,368,488Z"/><path class="cls-8" d="M437.18652,142.05322,416,136l-1.94116,1.94116A48,48,0,0,0,400,171.88232a48,48,0,0,0-14.05884-33.94116L384,136l-21.18652,6.05322a47.93281,47.93281,0,0,0-26.022,18.47461l1.834,1.22266A48,48,0,0,1,360,201.68872V272h80V196.56128a47.98575,47.98575,0,0,1,20.605-39.39014A47.90462,47.90462,0,0,0,437.18652,142.05322Z"/><path class="cls-21" d="M360,269.88818V272h80V223.62549A135.85776,135.85776,0,0,1,360,269.88818Z"/><path class="cls-22" d="M408,380.66992V376H392v14.05664A63.92606,63.92606,0,0,1,408,380.66992Z"/><path d="M439.38477,134.36133,424,129.96582v-9.02148a29.76293,29.76293,0,0,1,.37646-4.64014l12.43506-7.46143A56.28352,56.28352,0,0,0,464,60.82324,44.87375,44.87375,0,0,0,419.17676,16H380.82324A44.87375,44.87375,0,0,0,336,60.82324a56.28352,56.28352,0,0,0,27.18848,48.01953l12.43506,7.46143A29.76293,29.76293,0,0,1,376,120.94434v9.02148l-15.38379,4.39551a55.97413,55.97413,0,0,0-30.21435,21.4541,40.06409,40.06409,0,0,0-23.4126-18.13867L280,129.96582v-6.65234a19.18268,19.18268,0,0,1,5.65723-13.65625A35.08246,35.08246,0,0,0,296,84.68652V56a40,40,0,0,0-80,0V84.68652a35.08246,35.08246,0,0,0,10.34277,24.97071A19.18268,19.18268,0,0,1,232,123.31348v6.65234l-26.98828,7.71094A39.963,39.963,0,0,0,184,152.21387a39.96243,39.96243,0,0,0-21.01074-14.53711L136,129.96582v-6.65234a19.18268,19.18268,0,0,1,5.65723-13.65625A35.08246,35.08246,0,0,0,152,84.68652V56a40,40,0,0,0-80,0V84.68652a35.08246,35.08246,0,0,0,10.34277,24.97071A19.18268,19.18268,0,0,1,88,123.31348v6.65234l-26.98828,7.71094A40.17,40.17,0,0,0,32,176.1377V272a23.958,23.958,0,0,0,27.08252,23.79541L56,311.208V368a24.0384,24.0384,0,0,0,16,22.62378V448H64a24,24,0,0,0,0,48H96a23.90134,23.90134,0,0,0,16-6.13086A23.90134,23.90134,0,0,0,128,496h32a24,24,0,0,0,0-48h-8V390.62378A24.0384,24.0384,0,0,0,168,368V311.208l-3.08252-15.4126A23.852,23.852,0,0,0,184,289.86914a23.94242,23.94242,0,0,0,24,4.75464V448a24,24,0,0,0,0,48h32a23.90134,23.90134,0,0,0,16-6.13086A23.90134,23.90134,0,0,0,272,496h32a24,24,0,0,0,0-48V294.62378a23.94242,23.94242,0,0,0,24-4.75464,23.89436,23.89436,0,0,0,20.27344,5.74219l-9.34473,60.73926A23.99961,23.99961,0,0,0,360,383.85278V448h-8a24,24,0,0,0,0,48h32a23.90134,23.90134,0,0,0,16-6.13086A23.90134,23.90134,0,0,0,416,496h32a24,24,0,0,0,0-48h-8V383.85278a23.99961,23.99961,0,0,0,21.07129-27.50219l-9.34473-60.73926A23.974,23.974,0,0,0,480,272V188.20605A56.23676,56.23676,0,0,0,439.38477,134.36133ZM88,56a24,24,0,0,1,48,0V84.68652a19.18268,19.18268,0,0,1-5.65723,13.65625A35.08246,35.08246,0,0,0,120,123.31348v7.27832a28.00579,28.00579,0,0,1-16,0v-7.27832A35.08246,35.08246,0,0,0,93.65723,98.34277,19.18268,19.18268,0,0,1,88,84.68652ZM64,271.207l-.8877,4.43872A7.99461,7.99461,0,0,1,48,272V232H64ZM104,472a8.00917,8.00917,0,0,1-8,8H64a8,8,0,0,1,0-16h40Zm0-24H88V432h16Zm0-32H88V392h16Zm56,48a8,8,0,0,1,0,16H128a8.00917,8.00917,0,0,1-8-8v-8Zm-24-32v16H120V432Zm-16-16V392h16v24Zm32-48a8.00917,8.00917,0,0,1-8,8H120V328H104v48H80a8.00917,8.00917,0,0,1-8-8V312.792l6.47778-32.38769c.0503-.134.09815-.269.146-.4043h66.75244c.04785.13525.0957.27026.146.4043L152,312.792Zm24-96a7.99461,7.99461,0,0,1-15.1123,3.64575L160,271.207V232h16Zm0-56H160V192H144v72H80V192H64v24H48V176.1377a24.10089,24.10089,0,0,1,17.40723-23.07618l29.99585-8.5708a43.85061,43.85061,0,0,0,33.19384,0l29.99683,8.5708A24.10118,24.10118,0,0,1,176,176.1377ZM232,56a24,24,0,0,1,48,0V84.68652a19.18268,19.18268,0,0,1-5.65723,13.65625A35.08246,35.08246,0,0,0,264,123.31348v10.26464l-1.34375,2.01563a8.00081,8.00081,0,0,1-13.3125,0L248,133.57812V123.31348a35.08246,35.08246,0,0,0-10.34277-24.97071A19.18268,19.18268,0,0,1,232,84.68652ZM200,280a8.00917,8.00917,0,0,1-8-8v-8h16v8A8.00917,8.00917,0,0,1,200,280Zm48,192a8.00917,8.00917,0,0,1-8,8H208a8,8,0,0,1,0-16h40Zm0-144V448H224V280h64V448H264V328Zm64,144a8.00917,8.00917,0,0,1-8,8H272a8.00917,8.00917,0,0,1-8-8v-8h40A8.00917,8.00917,0,0,1,312,472Zm8-200a8,8,0,0,1-16,0v-8h16Zm0-83.79395V248H304V192H288v72H224V192H208v56H192V176.1377a24.10089,24.10089,0,0,1,17.40723-23.07618l27.20727-7.77417A23.93058,23.93058,0,0,0,248,153.77686V224h16V153.77686a23.93058,23.93058,0,0,0,11.3855-8.48951l27.20825,7.77417A24.10118,24.10118,0,0,1,320,176.1377ZM368,83.1084v3.94726a45.60548,45.60548,0,0,0,.42041,6.04908A40.21426,40.21426,0,0,1,352,60.82324,28.85542,28.85542,0,0,1,380.82324,32h38.35352A28.85542,28.85542,0,0,1,448,60.82324a40.21426,40.21426,0,0,1-16.42041,32.2815A45.60548,45.60548,0,0,0,432,87.05566V66.8877a23.99829,23.99829,0,0,0-27.94629-23.67286l-2.62988.4375A39.87407,39.87407,0,0,0,368,83.1084Zm19.15527,17.31348A30.03089,30.03089,0,0,1,384,87.05566V83.1084a23.92472,23.92472,0,0,1,20.05469-23.67383l2.62988-.43848A8.00034,8.00034,0,0,1,416,66.8877v20.168a30.03089,30.03089,0,0,1-3.15527,13.36622A46.12406,46.12406,0,0,0,408,120.94434v11.76611a56.39473,56.39473,0,0,0-8,10.28369,56.39473,56.39473,0,0,0-8-10.28369V120.94434A46.12406,46.12406,0,0,0,387.15527,100.42188Zm-22.14355,49.32421,16.60791-4.7456A39.70516,39.70516,0,0,1,392,171.88184V176h16v-4.11816a39.70482,39.70482,0,0,1,10.38062-26.8816l16.60864,4.74585a39.66515,39.66515,0,0,1,13.644,6.98951A55.86829,55.86829,0,0,0,432,196.56152V264H368V200h-.05225a55.84217,55.84217,0,0,0-19.45068-40.78345A39.77358,39.77358,0,0,1,365.01172,149.74609ZM352,271.38867l-.53149,3.45459A7.99457,7.99457,0,0,1,336,272V188.20605a39.698,39.698,0,0,1,3.26929-15.76269A39.89431,39.89431,0,0,1,352,201.68848ZM392,472a8.00917,8.00917,0,0,1-8,8H352a8,8,0,0,1,0-16h40Zm0-24H376V384h16Zm56,16a8,8,0,0,1,0,16H416a8.00917,8.00917,0,0,1-8-8v-8Zm-40-16V384h16v64Zm35.42188-82.791A7.88534,7.88534,0,0,1,437.35059,368H362.64941a7.99953,7.99953,0,0,1-7.90625-9.21582L366.86328,280h66.27344l12.12012,78.78418A7.88323,7.88323,0,0,1,443.42188,365.209ZM464,272a7.99457,7.99457,0,0,1-15.46851,2.84326L448,271.38867V196.56152a39.89556,39.89556,0,0,1,11.03345-27.56714A39.79354,39.79354,0,0,1,464,188.20605Z"/></g></svg>